<svg width="96" height="96" viewBox="0 0 96 96" fill="none" xmlns="http://www.w3.org/2000/svg">
<path d="M91.9999 48V48.13C91.9742 56.8213 89.3751 65.3102 84.5305 72.526C79.6858 79.7418 72.8127 85.3612 64.7781 88.6754C56.7434 91.9895 47.9073 92.8499 39.3842 91.148C30.8612 89.4461 23.0331 85.2582 16.8874 79.1125C10.7418 72.9668 6.55384 65.1387 4.85195 56.6157C3.15006 48.0927 4.01045 39.2565 7.32457 31.2219C10.6387 23.1873 16.2581 16.3141 23.4739 11.4695C30.6897 6.62484 39.1787 4.02572 47.8699 4H48C49.06 4 50.11 4 51.16 4.12C52.8785 4.2403 54.5883 4.46404 56.2799 4.79C59.0505 5.31492 61.7634 6.10867 64.3799 7.16C69.8709 9.3682 74.8616 12.6583 79.0551 16.8347C83.2486 21.011 86.5592 25.9881 88.7899 31.47C89.8716 34.1291 90.6856 36.8894 91.2199 39.71C91.5453 41.4186 91.769 43.1449 91.8899 44.88C91.9999 45.92 91.9999 47 91.9999 48Z" fill="#FFDBC6"/>
<path d="M91 44.5V44.62C90.9822 52.4306 88.6509 60.0609 84.3005 66.5477C79.95 73.0346 73.7754 78.0873 66.5559 81.0681C59.3364 84.0488 51.3957 84.8241 43.7361 83.2959C36.0764 81.7678 29.0411 78.0048 23.5181 72.4818C17.9952 66.9589 14.2322 59.9236 12.704 52.2639C11.1759 44.6042 11.9511 36.6635 14.9319 29.4441C17.9127 22.2246 22.9654 16.0499 29.4522 11.6995C35.9391 7.34905 43.5694 5.0178 51.38 5H51.5C52.5 5 53.39 5 54.34 5.11C55.8807 5.21747 57.4134 5.41783 58.93 5.71C60.779 6.0623 62.6003 6.54687 64.38 7.16C69.871 9.3682 74.8617 12.6583 79.0552 16.8347C83.2487 21.011 86.5593 25.9881 88.79 31.47C89.4335 33.2926 89.9383 35.1613 90.3 37.06C90.5921 38.5933 90.7925 40.1428 90.9 41.7C91 42.63 91 43.57 91 44.5Z" fill="#FFC3A0"/>
<path d="M74.66 21.9299C75.7335 23.0386 76.7355 24.2143 77.66 25.4499" stroke="white" stroke-width="3" stroke-linecap="round" stroke-linejoin="round"/>
<path d="M58 12C62.23 13.225 66.2156 15.1738 69.78 17.76" stroke="white" stroke-width="3" stroke-linecap="round" stroke-linejoin="round"/>
<path d="M29 37V59C29 61.1217 29.8429 63.1566 31.3431 64.6569C32.8434 66.1571 34.8783 67 37 67H59C61.1217 67 63.1566 66.1571 64.6569 64.6569C66.1571 63.1566 67 61.1217 67 59V37C67 34.8783 66.1571 32.8434 64.6569 31.3431C63.1566 29.8429 61.1217 29 59 29H37C34.8783 29 32.8434 29.8429 31.3431 31.3431C29.8429 32.8434 29 34.8783 29 37ZM56.32 63H39.68C37.9084 63 36.2093 62.2962 34.9565 61.0435C33.7038 59.7907 33 58.0916 33 56.32V39.68C33 37.9084 33.7038 36.2093 34.9565 34.9565C36.2093 33.7038 37.9084 33 39.68 33H56.32C58.0916 33 59.7907 33.7038 61.0435 34.9565C62.2962 36.2093 63 37.9084 63 39.68V56.32C63 58.0916 62.2962 59.7907 61.0435 61.0435C59.7907 62.2962 58.0916 63 56.32 63Z" fill="white"/>
<path d="M48 39C46.22 39 44.4799 39.5278 42.9999 40.5168C41.5198 41.5057 40.3663 42.9113 39.6851 44.5559C39.0039 46.2004 38.8257 48.01 39.1729 49.7558C39.5202 51.5016 40.3774 53.1053 41.636 54.364C42.8947 55.6226 44.4984 56.4798 46.2442 56.8271C47.99 57.1743 49.7996 56.9961 51.4442 56.3149C53.0887 55.6337 54.4943 54.4802 55.4832 53.0001C56.4722 51.5201 57 49.78 57 48C57 45.6131 56.0518 43.3239 54.364 41.636C52.6761 39.9482 50.387 39 48 39ZM48 53C47.0111 53 46.0444 52.7068 45.2222 52.1573C44.3999 51.6079 43.759 50.827 43.3806 49.9134C43.0022 48.9998 42.9032 47.9945 43.0961 47.0245C43.289 46.0546 43.7652 45.1637 44.4645 44.4645C45.1637 43.7652 46.0546 43.289 47.0246 43.0961C47.9945 42.9031 48.9998 43.0022 49.9134 43.3806C50.8271 43.759 51.6079 44.3999 52.1574 45.2221C52.7068 46.0444 53 47.0111 53 48C53 49.3261 52.4732 50.5979 51.5355 51.5355C50.5979 52.4732 49.3261 53 48 53Z" fill="white"/>
<path d="M58 40C59.1046 40 60 39.1046 60 38C60 36.8954 59.1046 36 58 36C56.8954 36 56 36.8954 56 38C56 39.1046 56.8954 40 58 40Z" fill="white"/>
</svg>
