<svg width="96" height="96" viewBox="0 0 96 96" fill="none" xmlns="http://www.w3.org/2000/svg">
<path d="M91.9999 48V48.13C91.9742 56.8213 89.3751 65.3102 84.5305 72.526C79.6858 79.7418 72.8127 85.3612 64.7781 88.6754C56.7434 91.9895 47.9073 92.8499 39.3842 91.148C30.8612 89.4461 23.0331 85.2582 16.8874 79.1125C10.7418 72.9668 6.55384 65.1387 4.85195 56.6157C3.15006 48.0927 4.01045 39.2565 7.32457 31.2219C10.6387 23.1873 16.2581 16.3141 23.4739 11.4695C30.6897 6.62484 39.1787 4.02572 47.8699 4H48C49.06 4 50.11 4 51.16 4.12C52.8785 4.2403 54.5883 4.46404 56.2799 4.79C59.0505 5.31492 61.7634 6.10867 64.3799 7.16C69.8709 9.3682 74.8616 12.6583 79.0551 16.8347C83.2486 21.011 86.5592 25.9881 88.7899 31.47C89.8716 34.1291 90.6856 36.8894 91.2199 39.71C91.5453 41.4186 91.769 43.1449 91.8899 44.88C91.9999 45.92 91.9999 47 91.9999 48Z" fill="#FFDBC6"/>
<path d="M91 44.5V44.62C90.9822 52.4306 88.6509 60.0609 84.3005 66.5477C79.95 73.0346 73.7754 78.0873 66.5559 81.0681C59.3364 84.0488 51.3957 84.8241 43.7361 83.2959C36.0764 81.7678 29.0411 78.0048 23.5181 72.4818C17.9952 66.9589 14.2322 59.9236 12.704 52.2639C11.1759 44.6042 11.9511 36.6635 14.9319 29.4441C17.9127 22.2246 22.9654 16.0499 29.4522 11.6995C35.9391 7.34905 43.5694 5.0178 51.38 5H51.5C52.5 5 53.39 5 54.34 5.11C55.8807 5.21747 57.4134 5.41783 58.93 5.71C60.779 6.0623 62.6003 6.54687 64.38 7.16C69.871 9.3682 74.8617 12.6583 79.0552 16.8347C83.2487 21.011 86.5593 25.9881 88.79 31.47C89.4335 33.2926 89.9383 35.1613 90.3 37.06C90.5921 38.5933 90.7925 40.1428 90.9 41.7C91 42.63 91 43.57 91 44.5Z" fill="#FFC3A0"/>
<path d="M74.66 21.9299C75.7335 23.0386 76.7355 24.2143 77.66 25.4499" stroke="white" stroke-opacity="0.5" stroke-width="3" stroke-linecap="round" stroke-linejoin="round"/>
<path d="M58 12C62.23 13.225 66.2156 15.1738 69.78 17.76" stroke="white" stroke-opacity="0.5" stroke-width="3" stroke-linecap="round" stroke-linejoin="round"/>
<path d="M62 60.3701H67.78C67.78 60.3701 71.97 60.0601 68.09 56.0501C64.21 52.0401 60.68 50.2701 63.9 47.0501C67.12 43.8301 72.46 36.7701 67.69 36.7701H60.69C60.56 36.7701 59.77 36.5501 59.19 37.8701C58.1165 40.3696 56.8354 42.7747 55.36 45.0601C53.99 46.9201 53.19 48.2401 52.13 47.6701C51.07 47.1001 51.81 38.7601 51.81 38.7601C51.8814 38.4149 51.8768 38.0584 51.7966 37.7152C51.7164 37.372 51.5625 37.0503 51.3456 36.7725C51.1287 36.4947 50.854 36.2674 50.5405 36.1064C50.2269 35.9454 49.8822 35.8545 49.53 35.8401C46.99 35.5601 43.02 35.3401 41.23 36.4001C39.85 37.2001 40.36 37.4001 41.72 37.8701C43.08 38.3401 43.58 41.5101 43.36 44.1701C43.14 46.8301 42.52 48.7301 41.02 47.4501C39.52 46.1701 36.26 40.1201 35.82 39.0001C35.38 37.8801 35.12 36.7501 32.82 36.7901C30.52 36.8301 28.4 36.7901 27.7 36.8801C27 36.9701 25.36 36.8801 26.82 39.5301C28.28 42.1801 31.81 50.1801 35.38 54.0001C38.95 57.8201 42.75 60.2701 46.94 60.3501C51.13 60.4301 51.35 60.3501 51.57 58.1001C51.79 55.8501 52.63 53.2501 54.75 55.4601C56.87 57.6701 59.67 60.4701 62 60.3701Z" fill="white"/>
</svg>
