<svg width="96" height="96" viewBox="0 0 96 96" fill="none" xmlns="http://www.w3.org/2000/svg">
<path d="M91.9999 48V48.13C91.9742 56.8213 89.3751 65.3102 84.5305 72.526C79.6858 79.7418 72.8127 85.3612 64.7781 88.6754C56.7434 91.9895 47.9073 92.8499 39.3842 91.148C30.8612 89.4461 23.0331 85.2582 16.8874 79.1125C10.7418 72.9668 6.55384 65.1387 4.85195 56.6157C3.15006 48.0927 4.01045 39.2565 7.32457 31.2219C10.6387 23.1873 16.2581 16.3141 23.4739 11.4695C30.6897 6.62484 39.1787 4.02572 47.8699 4H48C49.06 4 50.11 4 51.16 4.12C52.8785 4.2403 54.5883 4.46404 56.2799 4.79C59.0505 5.31492 61.7634 6.10867 64.3799 7.16C69.8709 9.3682 74.8616 12.6583 79.0551 16.8347C83.2486 21.011 86.5592 25.9881 88.7899 31.47C89.8716 34.1291 90.6856 36.8894 91.2199 39.71C91.5453 41.4186 91.769 43.1449 91.8899 44.88C91.9999 45.92 91.9999 47 91.9999 48Z" fill="#FFDBC6"/>
<path d="M91 44.5V44.62C90.9822 52.4306 88.6509 60.0609 84.3005 66.5477C79.95 73.0346 73.7754 78.0873 66.5559 81.0681C59.3364 84.0488 51.3957 84.8241 43.7361 83.2959C36.0764 81.7678 29.0411 78.0048 23.5181 72.4818C17.9952 66.9589 14.2322 59.9236 12.704 52.2639C11.1759 44.6042 11.9511 36.6635 14.9319 29.4441C17.9127 22.2246 22.9654 16.0499 29.4522 11.6995C35.9391 7.34905 43.5694 5.0178 51.38 5H51.5C52.5 5 53.39 5 54.34 5.11C55.8807 5.21747 57.4134 5.41783 58.93 5.71C60.779 6.0623 62.6003 6.54687 64.38 7.16C69.871 9.3682 74.8617 12.6583 79.0552 16.8347C83.2487 21.011 86.5593 25.9881 88.79 31.47C89.4335 33.2926 89.9383 35.1613 90.3 37.06C90.5921 38.5933 90.7925 40.1428 90.9 41.7C91 42.63 91 43.57 91 44.5Z" fill="#FFC3A0"/>
<path d="M74.66 21.9299C75.7335 23.0386 76.7355 24.2143 77.66 25.4499" stroke="white" stroke-width="3" stroke-linecap="round" stroke-linejoin="round"/>
<path d="M58 12C62.23 13.225 66.2156 15.1738 69.78 17.76" stroke="white" stroke-width="3" stroke-linecap="round" stroke-linejoin="round"/>
<path d="M46.36 27.7401C42.9928 28.0593 39.7629 29.2332 36.9765 31.1505C34.1902 33.0678 31.9396 35.6649 30.4382 38.6957C28.9368 41.7265 28.2344 45.0905 28.3975 48.4689C28.5605 51.8472 29.5837 55.128 31.37 58.0001L27.84 68.3501L38.64 64.9401C41.3667 66.4493 44.41 67.2967 47.5243 67.4139C50.6387 67.5311 53.737 66.9147 56.5695 65.6146C59.4019 64.3145 61.8892 62.367 63.8308 59.9291C65.7724 57.4911 67.1139 54.6311 67.7472 51.5795C68.3804 48.528 68.2878 45.3703 67.4766 42.3612C66.6654 39.352 65.1585 36.5755 63.0773 34.2557C60.9961 31.9359 58.3989 30.1376 55.4951 29.0058C52.5912 27.874 49.4621 27.4405 46.36 27.7401ZM49.16 63.6801C45.9489 63.8646 42.7567 63.077 40 61.4201C39.8776 61.3476 39.7411 61.3021 39.5997 61.2866C39.4583 61.2711 39.3152 61.2859 39.18 61.3301L32.97 63.3301L34.97 57.3301C35.0161 57.1847 35.0283 57.0308 35.0058 56.88C34.9832 56.7292 34.9265 56.5856 34.84 56.4601C32.8573 53.4992 31.9095 49.9658 32.1443 46.4101C32.379 42.8545 33.7831 39.4763 36.1379 36.8018C38.4927 34.1274 41.6659 32.3068 45.1632 31.6236C48.6605 30.9405 52.2855 31.4333 55.4736 33.0251C58.6617 34.6169 61.2338 37.2184 62.7893 40.4244C64.3447 43.6303 64.7962 47.2607 64.0734 50.75C63.3506 54.2393 61.4941 57.3916 58.793 59.7159C56.092 62.0401 52.698 63.4057 49.14 63.6001L49.16 63.6801Z" fill="white"/>
<path d="M54.0699 50.2601L58.0699 52.3501C58.4799 52.5501 58.7599 52.7001 58.4799 53.8001C58.1999 54.9001 58.1299 55.6401 57.0399 56.3201C56.4005 56.7867 55.6774 57.1262 54.9099 57.3201C54.3599 57.4201 53.7999 57.8801 51.3499 56.9601C47.8108 55.8179 44.6826 53.6664 42.3499 50.7701C38.8199 46.6201 37.7599 43.4401 38.7399 40.9101C39.0171 40.1835 39.4124 39.5077 39.9099 38.9101C40.1314 38.6347 40.4094 38.4101 40.7251 38.2514C41.0408 38.0927 41.3868 38.0036 41.7399 37.9901C42.4999 37.8701 43.2399 37.4201 43.9399 39.4301C44.6399 41.4401 45.0699 42.4301 45.1999 42.7101C45.3175 42.9757 45.342 43.2733 45.2694 43.5546C45.1968 43.8359 45.0314 44.0845 44.7999 44.2601C44.4076 44.6322 44.0401 45.0297 43.6999 45.4501C43.5767 45.6069 43.5096 45.8006 43.5096 46.0001C43.5096 46.1995 43.5767 46.3932 43.6999 46.5501C44.5687 48.1248 45.7136 49.5305 47.0799 50.7001C48.0748 51.4227 49.1362 52.0489 50.2499 52.5701C50.6099 52.7301 50.8499 52.9701 51.5099 52.2901C52.1699 51.6101 52.5099 51.0901 52.9199 50.6501C53.3299 50.2101 53.6499 50.0001 54.0699 50.2601Z" fill="white"/>
</svg>
